<svg width="39" height="65" viewBox="0 0 39 65" fill="none" xmlns="http://www.w3.org/2000/svg">
  <path
    d="M33.0909 12.4172C33.0909 18.4662 28.7683 23.505 23.0455 24.6094C22.2803 24.757 21.4901 24.8343 20.6818 24.8343C19.4498 24.8343 18.2598 24.6547 17.1364 24.3201C16.5243 24.1379 15.9321 23.9096 15.3636 23.6394C11.1712 21.6465 8.27273 17.3705 8.27273 12.4172C8.27273 5.55934 13.8285 -2.45611e-05 20.6818 -2.45611e-05C27.5352 -2.45611e-05 33.0909 5.55934 33.0909 12.4172Z"
    fill="#FFFCCD" />
  <path
    d="M5.2973 40.4653C3.70946 41.1644 1.86139 40.3748 1.26883 38.7442L0.980509 37.9508C0.432148 36.4419 1.16902 34.7686 2.65241 34.1544L8.56818 31.7049L17.1364 28.1571V24.3201C18.2598 24.6547 19.4498 24.8343 20.6818 24.8343C21.4901 24.8343 22.2803 24.757 23.0455 24.6094V28.1571L36.4441 34.116C37.8837 34.7562 38.5827 36.401 38.0446 37.8817L37.7664 38.6471C37.161 40.3132 35.2508 41.0938 33.6518 40.3286L23.0455 35.2527V45.896L31.7739 59.7678C32.5325 60.9734 32.302 62.5517 31.2303 63.49V63.49C29.7892 64.7518 27.5421 64.2926 26.7116 62.5666L20.6818 50.035L11.9432 63.1515C10.938 64.6604 8.83437 64.9396 7.4703 63.7453L7.39756 63.6816C6.22261 62.6528 6.03341 60.8947 6.96257 59.6396L17.1364 45.896V35.2527L5.2973 40.4653Z"
    fill="#FFFCCD" />
</svg>